<svg width="472" height="417" viewBox="0 0 472 417" fill="none" xmlns="http://www.w3.org/2000/svg">
<path d="M114.177 223.771C108.828 223.631 104.427 227.943 104.427 233.292C104.427 238.646 108.828 242.959 114.177 242.813H357.182C362.531 242.953 366.938 238.641 366.938 233.292C366.938 227.938 362.531 223.625 357.182 223.771H114.177Z" fill="#00FFAB"/>
<path d="M462.625 157.041C467.849 157.135 472.021 161.422 471.995 166.646V255.906C471.995 268.562 471.636 280.182 467.208 290.948C462.802 301.682 453.589 310.609 440 315.76L438.526 316.323V378.968C451.87 381.687 463.667 389.906 470.636 401.968C473.266 406.531 471.698 412.375 467.146 415.01C462.594 417.64 456.75 416.099 454.12 411.521C448.922 402.5 439.375 396.942 428.979 396.942C418.578 396.942 409.005 402.5 403.807 411.521C401.24 416.218 395.297 417.875 390.651 415.182C386.047 412.526 384.511 406.552 387.318 401.963C394.287 389.901 406.078 381.682 419.432 378.963V323.531L396.24 332.312C391.25 334.5 385.422 332.078 383.505 326.995C381.552 321.88 384.307 316.203 389.474 314.51L433.287 297.958C443.271 294.203 447 290.005 449.599 283.703C452.203 277.375 452.938 267.974 452.938 255.906V166.646C452.875 161.297 457.25 156.953 462.625 157.041Z" fill="#00FFAB"/>
<path d="M9.6718 157.041C4.44785 157.135 0.249928 161.422 0.30722 166.646V255.906C0.30722 268.562 0.661387 280.182 5.06764 290.948C9.49472 301.682 18.6874 310.609 32.276 315.76L33.7812 316.323V378.968C20.4218 381.687 8.64055 389.906 1.6666 401.968C-0.963613 406.531 0.572845 412.375 5.15618 415.01C9.69785 417.635 15.526 416.099 18.151 411.521C23.3541 402.5 32.927 396.942 43.3333 396.942C53.7343 396.942 63.302 402.5 68.4999 411.521C71.0676 416.218 76.9843 417.875 81.6197 415.182C86.2499 412.526 87.7656 406.552 84.9791 401.963C78.0103 389.901 66.2239 381.682 52.8697 378.963V323.531L76.0624 332.312C81.026 334.5 86.8437 332.078 88.7916 326.995C90.7187 321.88 87.9999 316.203 82.7968 314.51L38.9843 297.958C29.026 294.203 25.276 290.005 22.7083 283.703C20.1041 277.375 19.3437 267.974 19.3437 255.906V166.646C19.3906 161.297 15.0208 156.953 9.6718 157.041Z" fill="#00FFAB"/>
<path d="M443.979 145.718V266.109C443.979 275.041 438.464 283.047 430.011 286.338L371.396 309.104L356.38 397.531C352.479 427.276 307.011 419.802 313.089 390.406L330.11 289.885C331.38 282.396 336.526 276.099 343.672 273.323L378.682 259.724V188.203L365.099 205.823C361.578 209.25 356.854 211.177 351.886 211.177H303.787C278.761 211.177 278.761 174.135 303.787 174.135H344.24L381.375 133.599C387.162 127.265 393.344 122.333 400.672 122.333H421.969C436.328 122.328 443.979 135.453 443.979 145.718Z" fill="#00FFAB"/>
<path d="M146.469 119.817C142.094 119.817 138.64 121.531 136.25 123.958L115.776 144.593L132.292 162.599H167.536C176.724 162.599 185.094 166.416 190.38 172.271C195.635 178.125 198.031 185.427 198.031 192.614C198.031 199.468 195.849 206.416 191.114 212.125H223.203L223.64 167.031L244.203 182.854C249.812 187.198 258.114 187.437 262.875 182.203L293.255 148.672C294.047 147.963 295.083 147.552 296.14 147.578H312.63C318.073 147.578 321.64 146.218 323.823 144.51C325.984 142.786 326.901 140.781 326.932 138.531C326.958 134.01 322.854 127.859 312.182 125.526L290.651 120.229C287.068 120.255 283.646 121.562 281.047 123.958L255.193 150.828C253.693 152.218 251.333 152.307 249.703 151.01L215.015 123.958C211.911 121.531 208.724 119.817 204.286 119.817H146.469Z" fill="#00FFAB"/>
<path d="M135.448 253.724L167.979 299.88V358.688C167.979 385.031 209.87 385.031 209.87 358.688V298.016L196.37 274.948C194.187 270.13 197.875 268.448 200.802 272.344L217.698 294.724C218.083 295.38 218.286 296.089 218.286 296.854V358.682C218.286 385.026 259.807 385.026 259.807 358.682V292.542C259.807 287.776 258.177 283.109 255.193 279.354L237.354 253.719H135.448V253.724Z" fill="#00FFAB"/>
<path fill-rule="evenodd" clip-rule="evenodd" d="M213.917 79.198C205.047 99.448 181.271 108.761 160.735 100.016C140.261 91.3178 130.833 67.7866 139.672 47.5887C148.537 27.3335 172.318 18.0262 192.792 26.7449C213.323 35.4949 222.75 58.9689 213.917 79.198Z" fill="#00FFAB"/>
<path d="M27.3696 145.718V266.109C27.3696 275.041 32.9009 283.047 41.3175 286.338L99.9686 309.104L114.974 397.531C118.849 427.276 164.349 419.802 158.26 390.406L141.245 289.885C139.943 282.396 134.797 276.099 127.651 273.323L92.6665 259.724V188.203L106.229 205.823C109.75 209.25 114.505 211.177 119.437 211.177H167.562C192.562 211.177 192.562 174.135 167.562 174.135H127.125L89.979 133.599C84.1665 127.265 77.9946 122.333 70.6925 122.333H49.3488C35.0207 122.328 27.3696 135.453 27.3696 145.718Z" fill="#00FFAB"/>
<path fill-rule="evenodd" clip-rule="evenodd" d="M20.3957 84.0728C29.854 105.693 55.2655 115.62 77.1873 106.281C99.0571 96.9947 109.094 71.8957 99.6717 50.3384C90.1873 28.7239 64.8019 18.7551 42.9738 28.078C21.0155 37.4166 10.9686 62.4634 20.3957 84.0728Z" fill="#00FFAB"/>
<path fill-rule="evenodd" clip-rule="evenodd" d="M450.984 84.0728C441.5 105.693 416.13 115.62 394.198 106.281C372.339 96.9947 362.292 71.8957 371.714 50.3384C381.167 28.7239 406.583 18.7551 428.417 28.078C450.365 37.4166 460.412 62.4634 450.984 84.0728Z" fill="#00FFAB"/>
<path fill-rule="evenodd" clip-rule="evenodd" d="M299.891 97.2555C295.078 97.4378 290.141 96.8753 285.146 95.5732C272.417 92.1461 262.484 84.2711 256.349 74.2555L243.052 76.1461C238.734 76.7607 237.052 72.6878 239.766 69.2243L249.839 56.3336C248.891 49.8909 249.188 43.0888 250.995 36.3232C257.943 10.4534 283.646 -4.98408 310.172 2.14092C336.703 9.26592 351.266 35.4951 344.354 61.3597C338.714 82.3805 320.693 96.5211 299.891 97.2555ZM273.214 57.9378C278.229 57.9378 282.281 53.8545 282.281 48.8336C282.281 43.8388 278.24 39.7555 273.214 39.7555C268.188 39.7555 264.115 43.8388 264.115 48.8336C264.115 53.8545 268.193 57.9378 273.214 57.9378ZM297.672 57.9378C302.703 57.9378 306.75 53.8545 306.776 48.8336C306.75 43.8388 302.698 39.7555 297.672 39.7555C292.651 39.7555 288.573 43.8388 288.573 48.8336C288.573 53.8545 292.651 57.9378 297.672 57.9378ZM322.146 57.9378C327.135 57.9378 331.214 53.8545 331.214 48.8336C331.214 43.8388 327.135 39.7555 322.146 39.7555C317.089 39.7555 313.047 43.8388 313.047 48.8336C313.047 53.8545 317.089 57.9378 322.146 57.9378Z" fill="#00FFAB"/>
</svg>
