<svg width="146" height="146" viewBox="0 0 146 146" fill="none" xmlns="http://www.w3.org/2000/svg">
<mask id="mask0_22_4" style="mask-type:luminance" maskUnits="userSpaceOnUse" x="0" y="0" width="146" height="146">
<path d="M0 0H145.087V145.193H0V0Z" fill="white"/>
</mask>
<g mask="url(#mask0_22_4)">
<path d="M74.1439 38.8404C74.254 39.8504 74.4059 40.8528 74.6014 41.8477C74.797 42.8444 75.0324 43.8298 75.3115 44.8056C75.5906 45.7815 75.9095 46.744 76.2702 47.6933C76.631 48.6426 77.0297 49.5728 77.4682 50.4879C77.9087 51.403 78.3852 52.2992 78.8997 53.1744C79.4142 54.0477 79.9648 54.9002 80.5534 55.7279C81.14 56.5557 81.7608 57.3588 82.4158 58.1334C83.0708 58.9099 83.7581 59.656 84.4757 60.3737C85.1934 61.0913 85.9414 61.7767 86.7179 62.4317C87.4925 63.0867 88.2956 63.7056 89.1253 64.2923C89.953 64.8789 90.8055 65.4295 91.6807 65.944C92.556 66.4585 93.4521 66.935 94.3691 67.3736C95.2842 67.8122 96.2163 68.2128 97.1675 68.5716C98.1168 68.9323 99.0794 69.2513 100.057 69.5303C101.033 69.8075 102.02 70.0449 103.017 70.2404C104.014 70.4341 105.016 70.5878 106.026 70.698C118.904 71.9795 131.814 72.568 144.756 72.4617C131.814 72.3554 118.904 72.9439 106.026 74.2254C105.016 74.3356 104.014 74.4874 103.017 74.683C102.02 74.8786 101.033 75.1159 100.057 75.3931C99.0794 75.6721 98.1168 75.9911 97.1675 76.3499C96.2163 76.7106 95.2842 77.1093 94.3691 77.5479C93.4521 77.9884 92.5579 78.4649 91.6807 78.9794C90.8055 79.4939 89.953 80.0445 89.1253 80.6292C88.2956 81.2159 87.4944 81.8367 86.7179 82.4917C85.9414 83.1467 85.1934 83.8321 84.4757 84.5497C83.7581 85.2674 83.0708 86.0135 82.4158 86.79C81.7608 87.5646 81.14 88.3677 80.5534 89.1955C79.9667 90.0232 79.4142 90.8738 78.8997 91.749C78.3852 92.6243 77.9087 93.5185 77.4682 94.4336C77.0297 95.3487 76.631 96.2808 76.2702 97.2301C75.9095 98.1794 75.5906 99.142 75.3115 100.118C75.0324 101.094 74.797 102.079 74.6014 103.076C74.4059 104.071 74.254 105.073 74.1439 106.081C72.8605 118.949 72.2719 131.848 72.3782 144.779C72.4845 131.848 71.896 118.949 70.6126 106.081C70.5025 105.073 70.3487 104.071 70.1531 103.076C69.9595 102.079 69.7222 101.094 69.4431 100.118C69.164 99.142 68.845 98.1794 68.4843 97.2301C68.1255 96.2808 67.7249 95.3487 67.2863 94.4336C66.8478 93.5185 66.3693 92.6243 65.8548 91.749C65.3403 90.8738 64.7897 90.0232 64.2031 89.1955C63.6145 88.3658 62.9937 87.5646 62.3387 86.7881C61.6837 86.0135 60.9983 85.2674 60.2807 84.5497C59.5611 83.8321 58.815 83.1448 58.0385 82.4917C57.262 81.8367 56.4589 81.2159 55.6312 80.6292C54.8015 80.0426 53.949 79.492 53.0738 78.9775C52.1986 78.463 51.3025 77.9865 50.3874 77.5479C49.4704 77.1093 48.5382 76.7106 47.5889 76.3499C46.6396 75.9911 45.6752 75.6702 44.6993 75.3931C43.7235 75.114 42.7362 74.8767 41.7395 74.683C40.7428 74.4874 39.7384 74.3356 38.7303 74.2254C25.8506 72.942 12.9405 72.3554 0 72.4598C12.9405 72.5661 25.8506 71.9795 38.7303 70.6961C39.7384 70.5859 40.7428 70.4341 41.7395 70.2385C42.7362 70.043 43.7216 69.8075 44.6993 69.5285C45.6752 69.2494 46.6396 68.9304 47.5889 68.5716C48.5382 68.2109 49.4704 67.8122 50.3874 67.3736C51.3025 66.935 52.1986 66.4585 53.0738 65.944C53.949 65.4295 54.8015 64.8789 55.6293 64.2923C56.4589 63.7056 57.262 63.0848 58.0385 62.4317C58.815 61.7767 59.5611 61.0913 60.2788 60.3737C60.9983 59.656 61.6837 58.908 62.3387 58.1334C62.9937 57.3569 63.6145 56.5557 64.2012 55.7279C64.7897 54.9002 65.3403 54.0477 65.8548 53.1725C66.3693 52.2992 66.8478 51.403 67.2863 50.4879C67.7249 49.5728 68.1255 48.6407 68.4843 47.6933C68.845 46.744 69.164 45.7815 69.4431 44.8056C69.7222 43.8298 69.9595 42.8444 70.1531 41.8477C70.3487 40.8528 70.5025 39.8504 70.6126 38.8404C71.896 25.9739 72.4845 13.0733 72.3782 0.142334C72.2719 13.0733 72.8605 25.9739 74.1439 38.8404Z" fill="#B2C6DF"/>
</g>
</svg>
