<svg width="517" height="161" viewBox="0 0 517 161" fill="none" xmlns="http://www.w3.org/2000/svg">
<mask id="mask0_22_516" style="mask-type:luminance" maskUnits="userSpaceOnUse" x="0" y="0" width="517" height="161">
<path d="M0.841064 0.615906H516.23V160.921H0.841064V0.615906Z" fill="white"/>
</mask>
<g mask="url(#mask0_22_516)">
<mask id="mask1_22_516" style="mask-type:luminance" maskUnits="userSpaceOnUse" x="-2" y="1" width="521" height="167">
<path d="M1.82428 167.661L-1.54907 12.5674L515.443 1.31616L518.816 156.416L1.82428 167.661Z" fill="white"/>
</mask>
<g mask="url(#mask1_22_516)">
<mask id="mask2_22_516" style="mask-type:luminance" maskUnits="userSpaceOnUse" x="-2" y="1" width="521" height="167">
<path d="M1.82428 167.661L-1.54907 12.5674L515.443 1.31616L518.816 156.416L1.82428 167.661Z" fill="white"/>
</mask>
<g mask="url(#mask2_22_516)">
<path d="M515.537 4.07003C516.042 27.5152 511.181 42.766 500.663 50.7045C482.874 64.1238 452.487 54.5559 417.299 43.4797C386.791 33.8781 352.215 22.9904 322.051 26.7678C284.082 31.5147 271.322 60.6427 257.822 91.481C244.679 121.484 231.098 152.504 192.564 158.659C158.487 164.086 135.021 148.66 114.317 135.052C99.4024 125.241 86.515 116.771 71.9981 117.087C56.0606 117.431 47.5228 123.322 36.7092 130.776C28.5283 136.419 19.2634 142.808 5.03604 147.912C4.70611 148.033 4.36945 148.081 4.01932 148.067C3.66919 148.047 3.33926 147.966 3.0228 147.811C2.70634 147.663 2.43028 147.461 2.19461 147.199C1.95895 146.936 1.78388 146.646 1.66942 146.316C1.54822 145.98 1.50109 145.643 1.51456 145.293C1.53476 144.943 1.61556 144.606 1.76369 144.29C1.91182 143.973 2.12055 143.697 2.37641 143.462C2.63901 143.226 2.92854 143.044 3.25847 142.93C16.8394 138.055 25.8081 131.874 33.7197 126.42C44.8026 118.778 54.3772 112.179 71.8837 111.795C88.03 111.445 102.203 120.757 117.205 130.621C137.109 143.704 159.672 158.537 191.735 153.434C227.428 147.73 239.844 119.377 252.994 89.3465C266.495 58.515 280.459 26.6331 321.397 21.5091C352.7 17.5904 387.855 28.6598 418.875 38.423C452.675 49.0683 481.871 58.2592 497.492 46.4693C506.555 39.6283 510.736 25.7982 510.265 4.17776C510.258 3.82763 510.312 3.49097 510.44 3.16104C510.568 2.83785 510.75 2.54159 510.992 2.29245C511.234 2.03659 511.517 1.84133 511.834 1.69993C512.157 1.55853 512.494 1.48446 512.844 1.47773C513.187 1.471 513.53 1.52487 513.854 1.6528C514.177 1.78073 514.466 1.96926 514.722 2.21165C514.971 2.45405 515.173 2.73685 515.308 3.05331C515.449 3.37651 515.523 3.71317 515.53 4.0633L515.537 4.07003Z" fill="#007744"/>
</g>
</g>
</g>
</svg>
