<svg width="146" height="170" viewBox="0 0 146 170" fill="none" xmlns="http://www.w3.org/2000/svg">
<mask id="mask0_22_38" style="mask-type:luminance" maskUnits="userSpaceOnUse" x="4" y="0" width="142" height="170">
<path d="M4.5918 0H145.366V169.348H4.5918V0Z" fill="white"/>
</mask>
<g mask="url(#mask0_22_38)">
<path d="M135.231 25.3701C120.412 16.884 90.9837 49.6426 79.9744 61.2237C85.7061 50.8873 108.528 25.4374 87.5186 7.06479C69.0619 -9.07062 46.5892 7.46428 47.8718 32.4517C48.9736 53.9529 59.9071 54.1968 58.8642 67.6409C58.2713 70.6308 56.4252 74.7435 55.3697 78.9866L5.13002 152.864C4.70109 153.495 5.48326 154.243 6.05097 153.751L51.8289 113.806L51.5556 115.479L50.5968 121.371L42.9517 168.309C42.834 169.058 43.8853 169.327 44.1965 168.633L72.6111 104.567L78.0106 92.4012L79.289 89.5122L79.3352 89.4071C95.0207 73.6333 99.5581 87.6998 122.59 72.5904C146.244 57.069 151.497 34.6762 135.231 25.3701ZM69.3773 45.286C61.2023 43.5114 56.2738 34.2557 58.3638 24.6089C60.458 14.9622 68.7759 8.57866 76.9509 10.3491C85.1216 12.1237 90.0543 21.3793 87.9643 31.0303C85.8743 40.6729 77.548 47.0564 69.3773 45.286ZM112.006 67.4811C96.6355 71.619 86.0215 66.9134 94.7599 58.2044C95.2898 57.6787 120.618 29.5248 130.454 36.0555C140.281 42.5778 127.38 63.339 112.006 67.4811Z" fill="#F49728"/>
</g>
<mask id="mask1_22_38" style="mask-type:luminance" maskUnits="userSpaceOnUse" x="37" y="89" width="39" height="81">
<path d="M37.4263 89.8906H75.105V169.886H37.4263V89.8906Z" fill="white"/>
</mask>
<g mask="url(#mask1_22_38)">
<path d="M73.4438 91.291C73.8854 90.8158 74.3185 90.37 74.7432 89.9453L74.697 90.0504L73.4186 92.9394L68.0191 105.105L39.6045 169.172C39.2933 169.865 38.242 169.596 38.3597 168.848L46.0048 121.909L46.9636 116.018L47.2369 114.344L71.5389 93.1329C71.6945 92.9983 71.766 92.8091 71.7618 92.6198C72.321 92.2119 72.8845 91.7746 73.4438 91.291Z" fill="#F49728"/>
</g>
<mask id="mask2_22_38" style="mask-type:luminance" maskUnits="userSpaceOnUse" x="0" y="74" width="72" height="81">
<path d="M0 74.8191H71.8755V154.483H0V74.8191Z" fill="white"/>
</mask>
<g mask="url(#mask2_22_38)">
<path d="M71.5388 93.1328L47.2369 114.344L1.45893 154.289C0.891222 154.781 0.109053 154.033 0.537984 153.402L50.7777 79.5248C49.5497 84.4743 49.4026 89.5921 53.5952 93.3053C53.6246 93.3305 53.6498 93.3473 53.6751 93.3725C57.7247 97.1152 64.6507 97.8427 71.7617 92.6198C71.7659 92.809 71.6944 93.0025 71.5388 93.1328ZM70.8239 81.3877C70.088 77.3465 66.2192 74.6635 62.1738 75.3995C58.1326 76.1312 55.4539 80.0042 56.1856 84.0454C56.9215 88.0908 60.7903 90.7695 64.8357 90.0378C68.8769 89.3019 71.5598 85.4289 70.8239 81.3877Z" fill="#F49728"/>
</g>
<path d="M130.639 25.9083C115.82 17.4222 86.3916 50.1808 75.3824 61.7619C81.1141 51.4255 103.936 25.9756 82.9265 7.603C64.4699 -8.53241 41.9972 8.00249 43.2798 32.9899C44.3816 54.4911 55.3151 54.735 54.2722 68.1791C53.6793 71.169 51.8332 75.2817 50.7777 79.5248C49.5498 84.4701 49.4026 89.592 53.5952 93.3052C53.6246 93.3263 53.6498 93.3473 53.6751 93.3683C57.7247 97.1152 64.6507 97.8427 71.7617 92.6198C72.321 92.2119 72.8845 91.7746 73.4438 91.291C73.8853 90.8158 74.3185 90.37 74.7432 89.9411C90.4286 74.1715 94.9661 88.238 117.998 73.1244C141.652 57.6072 146.905 35.2144 130.639 25.9083ZM64.8357 90.0378C60.7945 90.7695 56.9215 88.0908 56.1856 84.0454C55.4539 80.0042 58.1326 76.1312 62.1738 75.3994C66.215 74.6635 70.088 77.3465 70.8239 81.3877C71.5599 85.4289 68.8769 89.3019 64.8357 90.0378ZM53.7718 25.1471C55.866 15.5004 64.1839 9.11687 72.3588 10.8873C80.5296 12.6619 85.4623 21.9175 83.3723 31.5685C81.2823 41.2111 72.956 47.5946 64.7853 45.8242C56.6103 44.0496 51.6818 34.7939 53.7718 25.1471ZM107.413 68.0193C92.0434 72.1572 81.4295 67.4516 90.1679 58.7426C90.6978 58.2169 116.026 30.063 125.862 36.5937C135.689 43.116 122.788 63.8772 107.413 68.0193Z" fill="#007744"/>
</svg>
