<svg width="148" height="123" viewBox="0 0 148 123" fill="none" xmlns="http://www.w3.org/2000/svg">
<path d="M48.0254 1.0363C47.8655 0.395045 47.2563 0.00965044 46.6166 0.169565C46.1992 0.265514 45.8474 0.618925 45.7515 1.0363C43.6998 8.73299 38.6385 22.9398 27.4892 31.6295C19.735 37.6599 10.6694 41.8289 1.05696 43.7846C0.415706 43.9126 -7.21589e-05 44.5219 0.127859 45.1631C0.223808 45.6125 0.545236 45.9339 0.961014 46.0618C8.77923 48.2431 22.3624 53.0213 29.2515 61.1338C34.6982 67.5479 39.5356 83.6161 41.6497 91.4727C41.8416 92.082 42.4828 92.4674 43.0921 92.2739C43.4759 92.178 43.7973 91.8581 43.8933 91.4727C46.0713 83.4866 51.7099 66.9706 62.2514 59.9472C71.6704 53.6626 82.1464 50.5186 88.0744 49.1082C88.7141 48.9483 89.0675 48.307 88.9076 47.6658C88.81 47.2804 88.5222 46.959 88.1384 46.863C80.9934 44.7473 67.6965 39.9691 62.2514 32.8161C53.792 21.7212 49.7557 8.34759 48.0254 1.0363ZM107.264 66.9387C107.168 66.5549 106.784 66.3294 106.401 66.4253C106.143 66.4909 105.951 66.6828 105.887 66.9387C104.638 71.6529 101.53 80.3443 94.7061 85.6359C89.9646 89.3235 84.422 91.8581 78.5259 93.0447C78.1422 93.1087 77.8863 93.4925 77.9822 93.8779C78.0462 94.1337 78.2381 94.3592 78.494 94.4232C83.2674 95.7697 91.5974 98.6561 95.7951 103.626C99.1277 107.539 102.075 117.385 103.388 122.196C103.484 122.581 103.901 122.805 104.253 122.709C104.509 122.645 104.67 122.451 104.766 122.196C106.111 117.321 109.54 107.22 115.98 102.921C121.746 99.0735 128.154 97.1481 131.774 96.283C132.158 96.187 132.384 95.8016 132.288 95.4178C132.224 95.1604 132.03 94.9685 131.806 94.9045C127.417 93.5884 119.312 90.7036 115.98 86.3091C110.789 79.6071 108.323 71.4291 107.264 66.9387ZM130.685 13.3177C130.621 13.0619 130.365 12.902 130.108 12.9659C129.948 12.9979 129.82 13.1258 129.756 13.3177C128.923 16.4617 126.873 22.201 122.323 25.7287C119.183 28.1674 115.498 29.8657 111.59 30.6685C111.334 30.7324 111.174 30.9563 111.206 31.2138C111.238 31.4057 111.366 31.5336 111.558 31.5656C114.731 32.4643 120.241 34.3881 123.061 37.6919C125.271 40.2889 127.225 46.831 128.09 50.0069C128.154 50.2628 128.41 50.3907 128.667 50.3267C128.827 50.2948 128.955 50.1668 128.987 50.0069C129.884 46.7671 132.158 40.065 136.452 37.2106C140.264 34.6455 144.526 33.3934 146.961 32.8161C147.217 32.7521 147.377 32.4963 147.313 32.2388C147.281 32.0789 147.153 31.951 146.993 31.887C144.076 31.0203 138.695 29.0965 136.484 26.1781C133.055 21.7212 131.39 16.3001 130.685 13.3177Z" fill="#F9A05E"/>
</svg>
