<svg width="427" height="432" viewBox="0 0 427 432" fill="none" xmlns="http://www.w3.org/2000/svg">
<path d="M234.099 380.958V333.141L216.078 350.318C217.51 354.453 222.063 365.411 234.099 380.958Z" fill="#00FFAB"/>
<path d="M279.011 259.25L274.787 272.312C275.75 278.776 282.219 322.619 287.432 364.244C287.526 364.979 287.38 365.724 287.026 366.369C286.891 366.609 283.604 372.463 268.844 392.797C268.188 393.703 267.141 394.234 266.026 394.234C264.912 394.234 263.865 393.703 263.208 392.797C248.448 372.463 245.162 366.609 245.026 366.369C244.672 365.724 244.526 364.979 244.62 364.244C249.833 322.619 256.302 278.776 257.266 272.312L253.042 259.25C247.985 254.896 244.021 250.13 241.068 245.942V432H290.985V245.942C288.037 250.13 284.068 254.896 279.011 259.25Z" fill="#00FFAB"/>
<path d="M213.557 303.963L234.099 318.323V238.864C231.354 240.349 228.651 241.828 225.995 243.307C214.703 276.901 213.614 298.104 213.557 303.963Z" fill="#00FFAB"/>
<path d="M209.713 346.761L232.099 325.427L208.099 308.646C207.213 308.032 206.667 307.037 206.615 305.964C206.568 305.052 205.745 284.729 217.036 248.365C180.5 269.323 153.588 288.792 141.094 298.292L148.375 314.537C149.167 316.292 148.38 318.354 146.625 319.141C146.161 319.349 145.677 319.448 145.203 319.448C143.87 319.448 142.599 318.683 142.021 317.391L106.203 237.526C92.6666 240.354 85.9583 243.198 83.6353 244.328C81.1405 250.396 77.8749 254.615 74.302 256.558L102.474 336.136C107.594 350.589 121.328 360.297 136.656 360.297C142.896 360.297 149.062 358.677 154.495 355.604L185.99 337.813V282.453C185.99 280.526 187.547 278.969 189.474 278.969C191.396 278.969 192.953 280.526 192.953 282.453V432H234.099V392.026C212.786 366.792 208.88 350.75 208.724 350.068C208.443 348.87 208.823 347.61 209.713 346.761Z" fill="#00FFAB"/>
<mask id="mask0_89_208" style="mask-type:luminance" maskUnits="userSpaceOnUse" x="0" y="46" width="147" height="99">
<path d="M0.59375 46.667H146.667V144H0.59375V46.667Z" fill="white"/>
</mask>
<g mask="url(#mask0_89_208)">
<path d="M146.146 137.329V53.2713C146.146 50.1567 143.615 47.6255 140.5 47.6255H6.30721C3.19784 47.6255 0.661377 50.1567 0.661377 53.2713V137.329C0.661377 140.443 3.19784 142.98 6.30721 142.98H140.5C143.615 142.98 146.146 140.443 146.146 137.329ZM99.276 109.829H47.5312C45.6093 109.829 44.0468 108.266 44.0468 106.344C44.0468 104.417 45.6093 102.86 47.5312 102.86H99.276C101.203 102.86 102.76 104.417 102.76 106.344C102.76 108.266 101.203 109.829 99.276 109.829ZM109.141 87.7453H37.6718C35.7499 87.7453 34.1874 86.1828 34.1874 84.2609C34.1874 82.3338 35.7499 80.7765 37.6718 80.7765H109.141C111.062 80.7765 112.62 82.3338 112.62 84.2609C112.62 86.1828 111.062 87.7453 109.141 87.7453Z" fill="#00FFAB"/>
</g>
<path d="M77.1928 216.885C76.2397 216.88 75.2918 216.875 74.3595 216.87C68.0366 216.818 62.9897 212.453 62.3595 206.489C61.9428 202.583 63.6147 197.739 68.8387 194.203C63.1407 190.969 55.1824 190.161 50.6043 191.943C47.5314 193.141 47.5314 194.807 47.5314 195.432V213.5C47.5314 218.557 45.5053 222.364 43.7189 225.719C41.5157 229.859 40.4376 232.177 41.9845 235.526C45.8387 243.864 64.1199 250.807 69.8074 250.807C71.573 250.807 74.7657 247.594 77.2084 241.646C80.5209 233.557 81.5001 222.505 77.1928 216.885Z" fill="#00FFAB"/>
<path d="M266.026 384.807C275.229 372.005 279.068 366.031 280.37 363.922C275.599 325.953 269.833 286.458 268.219 275.505H263.833C262.219 286.458 256.453 325.953 251.682 363.922C252.979 366.026 256.818 372 266.026 384.807Z" fill="#00FFAB"/>
<path d="M105.51 230.552C106.953 225.51 108.828 217.078 108.828 207.234C108.828 203.224 107.682 200.359 105.328 198.469C100.88 194.901 91.9896 194.474 79.6094 197.229C71.5156 199.036 68.9896 202.953 69.2865 205.755C69.4948 207.734 71.1927 209.875 74.4167 209.901C82.3906 209.963 91.7969 209.901 91.8906 209.901C91.901 209.901 91.9115 209.901 91.9167 209.901C93.8281 209.901 95.3854 211.443 95.401 213.359C95.4115 215.286 93.8646 216.854 91.9375 216.87C91.8906 216.87 89.0313 216.885 85.1406 216.896C87.4115 222.427 87.4792 229.302 86.2031 235.755C90.3958 234.25 96.6458 232.375 105.51 230.552Z" fill="#00FFAB"/>
<path d="M78.099 190.432C79.474 190.125 80.8074 189.864 82.1147 189.63V149.942H64.698V185.104C68.922 186.187 73.0053 188.099 76.2136 190.906C76.823 190.734 77.4428 190.578 78.099 190.432Z" fill="#00FFAB"/>
<path d="M315.974 350.318L297.953 333.141V380.958C309.984 365.417 314.536 354.464 315.974 350.318Z" fill="#00FFAB"/>
<path d="M318.49 303.969C318.411 297.651 317.125 273.5 303.339 235.526C301.182 235.891 299.354 236.125 297.953 236.271V318.323L318.49 303.969Z" fill="#00FFAB"/>
<path d="M272.417 257.005L266.818 226.505C266.557 226.51 266.286 226.531 266.026 226.531C265.766 226.531 265.5 226.51 265.234 226.505L259.641 257.005L263.365 268.536H268.688L272.417 257.005Z" fill="#00FFAB"/>
<path d="M412.563 42.8387C410.938 47.396 406.516 50.521 401.177 50.5679C393.151 50.6304 383.688 50.5679 383.594 50.5679C381.672 50.5522 380.125 48.9793 380.136 47.0575C380.151 45.1356 381.682 43.6095 383.646 43.5991C383.735 43.5991 393.151 43.6616 401.12 43.5991C404.344 43.5731 406.042 41.4325 406.25 39.4533C406.547 36.6512 404.021 32.7345 395.927 30.9272C383.552 28.172 374.656 28.5991 370.208 32.1668C367.854 34.0575 366.708 36.922 366.708 40.9272C366.708 48.3439 373.531 60.4168 377.604 66.6929C395.917 58.7397 411.74 63.2033 419.672 66.6616V42.3283C417.755 42.745 415.88 42.8856 414.25 42.8856C413.646 42.8856 413.089 42.8647 412.563 42.8387Z" fill="#00FFAB"/>
<mask id="mask1_89_208" style="mask-type:luminance" maskUnits="userSpaceOnUse" x="373" y="6" width="54" height="31">
<path d="M373.333 6.66699H426.594V36.0003H373.333V6.66699Z" fill="white"/>
</mask>
<g mask="url(#mask1_89_208)">
<path d="M424.266 15.9585C422.745 11.9273 420.146 9.23454 416.542 7.94809C412.901 6.65121 409.057 6.63558 405.12 7.896C400.693 9.31788 395.813 9.3335 391.38 7.94288C387.344 6.67204 383.427 6.67725 379.75 7.9585C373.401 10.1668 373.391 18.2398 373.99 23.0106C380.021 21.6304 387.859 21.995 397.438 24.1252C406.995 26.2554 411.458 31.1564 412.792 35.87C416.047 36.0835 421.844 35.7866 424.281 31.396C425.698 28.8543 426.505 21.8908 424.266 15.9585Z" fill="#00FFAB"/>
</g>
<path d="M379.786 73.3491C379.417 84.8126 377.406 139.495 372.036 170.125C367.688 194.927 354.786 213.427 333.682 225.104C325.359 229.708 317.036 232.464 310.234 234.11C326.521 279.328 325.49 304.87 325.438 305.964C325.385 307.042 324.839 308.031 323.953 308.646L299.953 325.427L322.339 346.766C323.229 347.615 323.604 348.87 323.328 350.073C323.172 350.75 319.266 366.797 297.953 392.026V432H339.094V282.448C339.094 280.526 340.656 278.969 342.578 278.969C344.5 278.969 346.063 280.526 346.063 282.448V300.677C353.224 296.167 366.911 286.557 380.464 271.646C398.349 251.964 419.672 218.714 419.672 172.052V74.3803C414.724 71.7293 398.786 64.8126 379.786 73.3491Z" fill="#00FFAB"/>
<path d="M258.307 225.635C252.511 224.333 246.636 221.641 241.068 217.812V232.292C242.141 234.552 246.307 242.703 253.771 250.37L258.307 225.635Z" fill="#00FFAB"/>
<path d="M314.797 118.532C314.797 104.917 310.042 73.2451 266.026 73.2451C222.011 73.2451 217.255 104.917 217.255 118.532V158.964C217.255 191.599 244.073 219.568 266.026 219.568C287.979 219.568 314.797 191.599 314.797 158.964V118.532Z" fill="#00FFAB"/>
<path d="M278.281 250.37C285.745 242.708 289.911 234.557 290.984 232.292V217.812C285.417 221.641 279.542 224.333 273.745 225.635L278.281 250.37Z" fill="#00FFAB"/>
<path d="M266.026 59.224C267.948 59.224 269.51 57.6667 269.51 55.7396V3.48438C269.51 1.5625 267.948 0 266.026 0C264.104 0 262.542 1.5625 262.542 3.48438V55.7396C262.542 57.6667 264.104 59.224 266.026 59.224Z" fill="#00FFAB"/>
<path d="M169.307 78.2658L202.797 95.1251C203.297 95.3803 203.833 95.4949 204.359 95.4949C205.635 95.4949 206.864 94.797 207.474 93.5783C208.338 91.8595 207.646 89.7658 205.932 88.9012L172.443 72.047C170.724 71.1772 168.63 71.8699 167.765 73.5887C166.901 75.3074 167.594 77.4012 169.307 78.2658Z" fill="#00FFAB"/>
<path d="M236.542 62.6611C237.094 64.0049 238.396 64.8174 239.76 64.8174C240.203 64.8174 240.656 64.734 241.089 64.5517C242.87 63.8174 243.714 61.7809 242.979 60.0049L224.271 14.6559C223.537 12.8799 221.5 12.0309 219.724 12.7653C217.943 13.4997 217.094 15.5361 217.828 17.3174L236.542 62.6611Z" fill="#00FFAB"/>
<path d="M310.563 74.5889C311.245 75.266 312.135 75.6045 313.026 75.6045C313.917 75.6045 314.807 75.266 315.49 74.5837L360.182 29.8285C361.547 28.4639 361.542 26.2607 360.182 24.9014C358.823 23.542 356.615 23.542 355.255 24.9014L310.563 69.6618C309.198 71.0212 309.203 73.2295 310.563 74.5889Z" fill="#00FFAB"/>
<path d="M216.562 74.5837C217.245 75.266 218.135 75.6045 219.026 75.6045C219.917 75.6045 220.807 75.266 221.489 74.5889C222.849 73.2295 222.854 71.0212 221.495 69.6618L176.797 24.9014C175.437 23.542 173.229 23.542 171.87 24.9014C170.51 26.2607 170.51 28.4639 171.87 29.8285L216.562 74.5837Z" fill="#00FFAB"/>
<path d="M359.61 72.047L326.125 88.9012C324.406 89.7658 323.714 91.8595 324.578 93.5783C325.188 94.797 326.417 95.5001 327.693 95.5001C328.219 95.5001 328.755 95.3803 329.255 95.1251L362.745 78.271C364.459 77.4064 365.151 75.3074 364.287 73.5887C363.422 71.8699 361.328 71.1772 359.61 72.047Z" fill="#00FFAB"/>
<path d="M290.964 64.5517C291.401 64.734 291.849 64.8174 292.292 64.8174C293.661 64.8174 294.958 64.0049 295.51 62.6611L314.219 17.3174C314.953 15.5361 314.109 13.4997 312.328 12.7653C310.552 12.0309 308.516 12.8799 307.781 14.6559L289.073 60.0049C288.339 61.7809 289.187 63.8174 290.964 64.5517Z" fill="#00FFAB"/>
</svg>
