<svg width="432" height="432" viewBox="0 0 432 432" fill="none" xmlns="http://www.w3.org/2000/svg">
<path d="M6.96875 432H174.193C174.651 432 175.104 431.958 175.552 431.864C176 431.776 176.438 431.646 176.859 431.468C177.281 431.297 177.688 431.083 178.068 430.828C178.448 430.573 178.797 430.286 179.12 429.958C179.443 429.635 179.734 429.286 179.99 428.906C180.245 428.526 180.458 428.119 180.63 427.698C180.807 427.276 180.938 426.838 181.026 426.39C181.115 425.942 181.161 425.489 181.161 425.031V383.224C181.156 381.396 181.005 379.583 180.714 377.781C180.422 375.974 179.99 374.203 179.417 372.468C178.844 370.734 178.141 369.052 177.302 367.427C176.469 365.807 175.505 364.255 174.427 362.781C173.344 361.307 172.156 359.927 170.859 358.646C169.557 357.359 168.167 356.182 166.682 355.114C165.198 354.047 163.641 353.104 162.01 352.286C160.375 351.463 158.688 350.776 156.948 350.218C159.135 347.484 160.807 344.468 161.974 341.166C163.141 337.869 163.729 334.468 163.74 330.968C163.74 329.942 163.693 328.916 163.589 327.896C163.49 326.875 163.339 325.859 163.141 324.849C162.938 323.843 162.688 322.849 162.391 321.864C162.094 320.885 161.75 319.916 161.354 318.968C160.964 318.021 160.526 317.093 160.042 316.187C159.557 315.281 159.026 314.401 158.458 313.547C157.885 312.692 157.276 311.869 156.625 311.078C155.974 310.281 155.286 309.521 154.557 308.797C153.833 308.073 153.073 307.38 152.276 306.729C151.484 306.078 150.661 305.468 149.807 304.896C148.953 304.328 148.073 303.797 147.167 303.317C146.26 302.833 145.333 302.39 144.385 302C143.438 301.604 142.474 301.26 141.49 300.963C140.505 300.666 139.51 300.416 138.505 300.213C137.495 300.015 136.484 299.864 135.458 299.765C134.438 299.661 133.411 299.614 132.385 299.614C131.359 299.614 130.333 299.661 129.313 299.765C128.292 299.864 127.276 300.015 126.271 300.213C125.26 300.416 124.266 300.666 123.286 300.963C122.302 301.26 121.339 301.604 120.391 302C119.438 302.39 118.51 302.833 117.604 303.317C116.703 303.797 115.823 304.328 114.969 304.896C114.115 305.468 113.292 306.078 112.495 306.729C111.703 307.38 110.943 308.073 110.214 308.797C109.49 309.521 108.802 310.281 108.151 311.078C107.5 311.869 106.885 312.692 106.318 313.547C105.745 314.401 105.219 315.281 104.734 316.187C104.25 317.093 103.813 318.021 103.417 318.968C103.026 319.916 102.682 320.885 102.38 321.864C102.083 322.849 101.833 323.843 101.635 324.849C101.432 325.859 101.286 326.875 101.182 327.896C101.083 328.916 101.031 329.942 101.031 330.968C101.047 334.468 101.635 337.869 102.802 341.166C103.964 344.468 105.641 347.484 107.823 350.218C104.38 351.328 101.188 352.932 98.2396 355.036C95.2969 357.135 92.7448 359.64 90.5781 362.536C88.4167 359.64 85.8646 357.135 82.9167 355.036C79.974 352.932 76.7813 351.328 73.3385 350.218C75.5208 347.484 77.1979 344.468 78.3594 341.166C79.526 337.869 80.1146 334.468 80.1302 330.968C80.1302 329.942 80.0781 328.916 79.9792 327.896C79.875 326.875 79.7292 325.859 79.526 324.849C79.3281 323.843 79.0781 322.849 78.7813 321.864C78.4792 320.885 78.1354 319.916 77.7448 318.968C77.349 318.021 76.9115 317.093 76.4271 316.187C75.9427 315.281 75.4167 314.401 74.8438 313.547C74.276 312.692 73.6615 311.869 73.0104 311.078C72.3594 310.281 71.6719 309.521 70.9479 308.797C70.2188 308.073 69.4583 307.38 68.6667 306.729C67.8698 306.078 67.0469 305.468 66.1927 304.896C65.3385 304.328 64.4583 303.797 63.5573 303.317C62.651 302.833 61.724 302.39 60.7708 302C59.8229 301.604 58.8594 301.26 57.875 300.963C56.8958 300.666 55.8958 300.416 54.8906 300.213C53.8854 300.015 52.8698 299.864 51.849 299.765C50.8281 299.661 49.8021 299.614 48.776 299.614C47.7448 299.614 46.724 299.661 45.7031 299.765C44.6771 299.864 43.6667 300.015 42.6563 300.213C41.651 300.416 40.6563 300.666 39.6719 300.963C38.6875 301.26 37.724 301.604 36.776 302C35.8281 302.39 34.901 302.833 33.9948 303.317C33.0885 303.797 32.2083 304.328 31.3542 304.896C30.5 305.468 29.6771 306.078 28.8854 306.729C28.0885 307.38 27.3281 308.073 26.6042 308.797C25.875 309.521 25.1875 310.281 24.5365 311.078C23.8854 311.869 23.276 312.692 22.7031 313.547C22.1354 314.401 21.6042 315.281 21.1198 316.187C20.6354 317.093 20.1979 318.021 19.8073 318.968C19.4115 319.916 19.0677 320.885 18.7708 321.864C18.474 322.849 18.224 323.843 18.0208 324.849C17.8229 325.859 17.6719 326.875 17.5729 327.896C17.4688 328.916 17.4219 329.942 17.4219 330.968C17.4323 334.468 18.0208 337.869 19.1875 341.166C20.3542 344.468 22.026 347.484 24.2135 350.218C22.4688 350.776 20.7865 351.463 19.151 352.286C17.5208 353.104 15.9583 354.047 14.4792 355.114C12.9948 356.182 11.6042 357.359 10.3021 358.646C9.00521 359.927 7.81771 361.307 6.73437 362.781C5.65625 364.255 4.69271 365.807 3.85937 367.427C3.02083 369.052 2.31771 370.734 1.74479 372.468C1.17187 374.203 0.739584 375.974 0.447917 377.781C0.156251 379.583 0.00520833 381.396 0 383.224V425.031C0 425.489 0.0416667 425.942 0.135416 426.39C0.223959 426.838 0.354167 427.276 0.531251 427.698C0.703125 428.119 0.916667 428.526 1.17187 428.906C1.42708 429.286 1.71354 429.635 2.04167 429.958C2.36458 430.286 2.71354 430.573 3.09375 430.828C3.47396 431.083 3.88021 431.297 4.30208 431.468C4.72396 431.646 5.16146 431.776 5.60937 431.864C6.05729 431.958 6.51042 432 6.96875 432ZM132.385 313.547C133.531 313.547 134.661 313.661 135.786 313.885C136.906 314.104 137.995 314.437 139.052 314.875C140.109 315.312 141.115 315.849 142.063 316.484C143.016 317.119 143.896 317.843 144.703 318.651C145.516 319.458 146.234 320.338 146.87 321.291C147.505 322.239 148.042 323.244 148.479 324.302C148.917 325.359 149.25 326.448 149.474 327.567C149.693 328.692 149.807 329.823 149.807 330.968C149.807 332.109 149.693 333.244 149.474 334.364C149.25 335.489 148.917 336.578 148.479 337.635C148.042 338.692 147.505 339.692 146.87 340.646C146.234 341.599 145.516 342.474 144.703 343.286C143.896 344.093 143.016 344.817 142.063 345.453C141.115 346.088 140.109 346.625 139.052 347.062C137.995 347.5 136.906 347.828 135.786 348.052C134.661 348.276 133.531 348.385 132.385 348.385C131.245 348.385 130.109 348.276 128.99 348.052C127.865 347.828 126.776 347.5 125.719 347.062C124.667 346.625 123.661 346.088 122.708 345.453C121.76 344.817 120.88 344.093 120.068 343.286C119.26 342.474 118.536 341.599 117.901 340.646C117.266 339.692 116.729 338.692 116.292 337.635C115.854 336.578 115.526 335.489 115.302 334.364C115.078 333.244 114.969 332.109 114.969 330.968C114.969 329.823 115.083 328.692 115.307 327.573C115.531 326.448 115.859 325.359 116.297 324.302C116.734 323.25 117.271 322.244 117.906 321.291C118.542 320.343 119.266 319.463 120.073 318.656C120.885 317.849 121.76 317.125 122.714 316.489C123.661 315.854 124.667 315.317 125.724 314.88C126.781 314.442 127.87 314.109 128.99 313.885C130.109 313.661 131.245 313.547 132.385 313.547ZM97.5469 383.224C97.5521 381.854 97.6875 380.494 97.9531 379.151C98.224 377.802 98.6198 376.494 99.1458 375.229C99.6719 373.963 100.318 372.76 101.078 371.619C101.839 370.479 102.708 369.422 103.677 368.453C104.646 367.479 105.703 366.614 106.844 365.854C107.984 365.088 109.188 364.448 110.458 363.922C111.724 363.396 113.031 362.994 114.375 362.729C115.719 362.458 117.078 362.323 118.453 362.323H146.323C147.693 362.323 149.052 362.458 150.401 362.729C151.745 362.994 153.052 363.396 154.318 363.922C155.583 364.448 156.792 365.088 157.932 365.854C159.073 366.614 160.125 367.479 161.099 368.453C162.068 369.422 162.932 370.479 163.698 371.619C164.458 372.76 165.104 373.963 165.63 375.229C166.156 376.494 166.552 377.802 166.823 379.151C167.089 380.494 167.224 381.854 167.224 383.224V418.062H97.5469V383.224ZM48.776 313.547C49.9167 313.547 51.0521 313.661 52.1719 313.885C53.2969 314.104 54.3854 314.437 55.4427 314.875C56.4948 315.312 57.5 315.849 58.4531 316.484C59.401 317.119 60.2813 317.843 61.0938 318.651C61.901 319.458 62.625 320.338 63.2604 321.291C63.8958 322.239 64.4323 323.244 64.8698 324.302C65.3073 325.359 65.6354 326.448 65.8594 327.567C66.0833 328.692 66.1927 329.823 66.1927 330.968C66.1927 332.109 66.0833 333.244 65.8594 334.364C65.6354 335.489 65.3073 336.578 64.8698 337.635C64.4323 338.692 63.8958 339.692 63.2604 340.646C62.625 341.599 61.901 342.474 61.0938 343.286C60.2813 344.093 59.401 344.817 58.4531 345.453C57.5 346.088 56.4948 346.625 55.4427 347.062C54.3854 347.5 53.2969 347.828 52.1719 348.052C51.0521 348.276 49.9167 348.385 48.776 348.385C47.6302 348.385 46.5 348.276 45.375 348.052C44.2552 347.828 43.1667 347.5 42.1094 347.062C41.0521 346.625 40.0469 346.088 39.099 345.453C38.1458 344.817 37.2656 344.093 36.4583 343.286C35.6458 342.474 34.9271 341.599 34.2917 340.646C33.6563 339.692 33.1198 338.692 32.6823 337.635C32.2448 336.578 31.9115 335.489 31.6875 334.364C31.4688 333.244 31.3542 332.109 31.3542 330.968C31.3542 329.823 31.4688 328.692 31.6927 327.573C31.9167 326.448 32.2448 325.359 32.6875 324.302C33.125 323.25 33.6615 322.244 34.2969 321.291C34.9323 320.343 35.651 319.463 36.4635 318.656C37.2708 317.849 38.151 317.125 39.099 316.489C40.0521 315.854 41.0521 315.317 42.1094 314.88C43.1667 314.442 44.2552 314.109 45.375 313.885C46.5 313.661 47.6302 313.547 48.776 313.547ZM13.9375 383.224C13.9375 381.854 14.0729 380.494 14.3385 379.151C14.6094 377.802 15.0052 376.494 15.5313 375.229C16.0573 373.963 16.7031 372.76 17.4635 371.619C18.2292 370.479 19.0937 369.422 20.0625 368.453C21.0365 367.479 22.0885 366.614 23.2292 365.854C24.3698 365.088 25.5781 364.448 26.8438 363.922C28.1094 363.396 29.4167 362.994 30.7604 362.729C32.1094 362.458 33.4688 362.323 34.8385 362.323H62.7083C64.0833 362.323 65.4427 362.458 66.7865 362.729C68.1302 362.994 69.4375 363.396 70.7031 363.922C71.974 364.448 73.1771 365.088 74.3177 365.854C75.4583 366.614 76.5156 367.479 77.4844 368.453C78.4531 369.422 79.3229 370.479 80.0833 371.619C80.8438 372.76 81.4896 373.963 82.0156 375.229C82.5417 376.494 82.9375 377.802 83.2083 379.151C83.474 380.494 83.6094 381.854 83.6146 383.224V418.062H13.9375V383.224Z" fill="#00FFAB"/>
<path d="M407.786 350.218C409.974 347.484 411.646 344.468 412.813 341.166C413.979 337.869 414.568 334.468 414.578 330.968C414.578 329.942 414.531 328.916 414.427 327.896C414.328 326.875 414.177 325.859 413.979 324.849C413.776 323.843 413.526 322.849 413.229 321.864C412.932 320.885 412.589 319.916 412.193 318.968C411.802 318.021 411.365 317.093 410.88 316.187C410.396 315.281 409.865 314.401 409.297 313.547C408.724 312.692 408.115 311.869 407.464 311.078C406.813 310.281 406.125 309.521 405.396 308.797C404.672 308.073 403.911 307.38 403.115 306.729C402.323 306.078 401.5 305.468 400.646 304.896C399.792 304.328 398.911 303.797 398.005 303.317C397.099 302.833 396.172 302.39 395.224 302C394.276 301.604 393.313 301.26 392.328 300.963C391.344 300.666 390.349 300.416 389.344 300.213C388.333 300.015 387.323 299.864 386.297 299.765C385.276 299.661 384.255 299.614 383.224 299.614C382.198 299.614 381.172 299.661 380.151 299.765C379.13 299.864 378.115 300.015 377.109 300.213C376.104 300.416 375.104 300.666 374.125 300.963C373.141 301.26 372.177 301.604 371.229 302C370.276 302.39 369.349 302.833 368.443 303.317C367.542 303.797 366.661 304.328 365.807 304.896C364.953 305.468 364.13 306.078 363.333 306.729C362.542 307.38 361.781 308.073 361.052 308.797C360.328 309.521 359.641 310.281 358.99 311.078C358.339 311.869 357.724 312.692 357.156 313.547C356.583 314.401 356.057 315.281 355.573 316.187C355.089 317.093 354.651 318.021 354.255 318.968C353.865 319.916 353.521 320.885 353.219 321.864C352.922 322.849 352.672 323.843 352.474 324.849C352.271 325.859 352.125 326.875 352.021 327.896C351.922 328.916 351.87 329.942 351.87 330.968C351.885 334.468 352.474 337.869 353.641 341.166C354.802 344.468 356.479 347.484 358.661 350.218C356.922 350.776 355.234 351.463 353.604 352.286C351.969 353.104 350.411 354.047 348.927 355.114C347.443 356.182 346.052 357.359 344.755 358.646C343.458 359.927 342.266 361.307 341.188 362.781C340.104 364.255 339.146 365.807 338.307 367.427C337.474 369.052 336.771 370.734 336.198 372.468C335.625 374.203 335.193 375.974 334.901 377.781C334.609 379.583 334.458 381.396 334.453 383.224V425.031C334.453 425.489 334.495 425.942 334.583 426.39C334.672 426.838 334.807 427.276 334.979 427.698C335.156 428.119 335.37 428.526 335.625 428.906C335.88 429.286 336.167 429.635 336.49 429.958C336.812 430.286 337.167 430.573 337.547 430.828C337.927 431.083 338.328 431.297 338.75 431.468C339.177 431.646 339.609 431.776 340.057 431.864C340.51 431.958 340.964 432 341.422 432H425.031C425.49 432 425.943 431.958 426.391 431.864C426.839 431.776 427.276 431.646 427.698 431.468C428.12 431.297 428.526 431.083 428.906 430.828C429.286 430.573 429.635 430.286 429.958 429.958C430.286 429.635 430.573 429.286 430.828 428.906C431.083 428.526 431.297 428.119 431.469 427.698C431.646 427.276 431.776 426.838 431.865 426.39C431.958 425.942 432 425.489 432 425.031V383.224C431.995 381.396 431.844 379.583 431.552 377.781C431.26 375.974 430.828 374.203 430.255 372.468C429.682 370.734 428.979 369.052 428.141 367.427C427.307 365.807 426.344 364.255 425.266 362.781C424.182 361.307 422.995 359.927 421.698 358.646C420.396 357.359 419.005 356.182 417.521 355.114C416.042 354.047 414.479 353.104 412.849 352.286C411.214 351.463 409.531 350.776 407.786 350.218ZM383.224 313.547C384.37 313.547 385.5 313.661 386.625 313.885C387.745 314.104 388.833 314.437 389.891 314.875C390.948 315.312 391.953 315.849 392.901 316.484C393.854 317.119 394.734 317.843 395.542 318.651C396.354 319.458 397.073 320.338 397.708 321.291C398.344 322.239 398.88 323.244 399.318 324.302C399.755 325.359 400.089 326.448 400.313 327.567C400.531 328.692 400.646 329.823 400.646 330.968C400.646 332.109 400.531 333.244 400.313 334.364C400.089 335.489 399.755 336.578 399.318 337.635C398.88 338.692 398.344 339.692 397.708 340.646C397.073 341.599 396.354 342.474 395.542 343.286C394.734 344.093 393.854 344.817 392.901 345.453C391.953 346.088 390.948 346.625 389.891 347.062C388.833 347.5 387.745 347.828 386.625 348.052C385.5 348.276 384.37 348.385 383.224 348.385C382.083 348.385 380.948 348.276 379.828 348.052C378.703 347.828 377.615 347.5 376.557 347.062C375.505 346.625 374.5 346.088 373.547 345.453C372.599 344.817 371.719 344.093 370.906 343.286C370.099 342.474 369.375 341.599 368.74 340.646C368.104 339.692 367.568 338.692 367.13 337.635C366.693 336.578 366.365 335.489 366.141 334.364C365.917 333.244 365.807 332.109 365.807 330.968C365.807 329.823 365.922 328.692 366.146 327.573C366.37 326.448 366.698 325.359 367.135 324.302C367.573 323.25 368.109 322.244 368.745 321.291C369.38 320.343 370.104 319.463 370.911 318.656C371.724 317.849 372.599 317.125 373.552 316.489C374.5 315.854 375.505 315.317 376.563 314.88C377.62 314.442 378.708 314.109 379.828 313.885C380.948 313.661 382.083 313.547 383.224 313.547ZM418.063 418.062H348.385V383.224C348.391 381.854 348.526 380.494 348.792 379.151C349.063 377.802 349.458 376.5 349.984 375.229C350.51 373.963 351.156 372.76 351.917 371.619C352.677 370.479 353.547 369.422 354.516 368.453C355.484 367.479 356.542 366.614 357.682 365.854C358.823 365.088 360.026 364.448 361.297 363.922C362.563 363.396 363.87 362.994 365.214 362.729C366.557 362.458 367.917 362.323 369.292 362.323H397.161C398.531 362.323 399.891 362.458 401.24 362.729C402.583 362.994 403.891 363.396 405.156 363.922C406.422 364.448 407.63 365.088 408.771 365.854C409.911 366.614 410.964 367.479 411.938 368.453C412.906 369.422 413.771 370.479 414.536 371.619C415.297 372.76 415.943 373.963 416.469 375.229C416.995 376.494 417.391 377.802 417.661 379.151C417.927 380.494 418.063 381.854 418.063 383.224V418.062Z" fill="#00FFAB"/>
<path d="M418.063 216V6.96875C418.063 6.51042 418.021 6.05729 417.932 5.60938C417.844 5.16146 417.708 4.72396 417.536 4.30208C417.359 3.88021 417.146 3.47396 416.891 3.09375C416.635 2.71354 416.349 2.36458 416.026 2.04167C415.703 1.71354 415.349 1.42708 414.969 1.17188C414.589 0.916667 414.188 0.703125 413.766 0.53125C413.339 0.354166 412.906 0.223959 412.458 0.135417C412.005 0.0416673 411.552 0 411.099 0H20.901C20.4479 0 19.9948 0.0416673 19.5417 0.135417C19.0937 0.223959 18.6615 0.354166 18.2344 0.53125C17.8125 0.703125 17.4115 0.916667 17.0313 1.17188C16.651 1.42708 16.2969 1.71354 15.974 2.04167C15.651 2.36458 15.3646 2.71354 15.1094 3.09375C14.8542 3.47396 14.6406 3.88021 14.4635 4.30208C14.2917 4.72396 14.1563 5.16146 14.0677 5.60938C13.9792 6.05729 13.9375 6.51042 13.9375 6.96875V216C13.9375 216.458 13.9792 216.911 14.0677 217.359C14.1563 217.807 14.2917 218.245 14.4635 218.667C14.6406 219.089 14.8542 219.49 15.1094 219.87C15.3646 220.25 15.651 220.604 15.974 220.927C16.2969 221.25 16.651 221.542 17.0313 221.797C17.4115 222.047 17.8125 222.266 18.2344 222.438C18.6615 222.615 19.0937 222.745 19.5417 222.833C19.9948 222.922 20.4479 222.969 20.901 222.969H411.099C411.552 222.969 412.005 222.922 412.458 222.833C412.906 222.745 413.339 222.615 413.766 222.438C414.188 222.266 414.589 222.047 414.969 221.797C415.349 221.542 415.703 221.25 416.026 220.927C416.349 220.604 416.635 220.25 416.891 219.87C417.146 219.49 417.359 219.089 417.536 218.667C417.708 218.245 417.844 217.807 417.932 217.359C418.021 216.911 418.063 216.458 418.063 216ZM404.13 209.031H27.8698V13.9375H404.13V209.031Z" fill="#00FFAB"/>
<path d="M348.385 292.646V250.839C348.385 249.922 348.297 249.016 348.115 248.12C347.937 247.224 347.672 246.354 347.323 245.511C346.969 244.662 346.542 243.86 346.031 243.099C345.526 242.339 344.948 241.636 344.302 240.99C343.651 240.344 342.948 239.766 342.187 239.256C341.427 238.75 340.625 238.318 339.781 237.969C338.937 237.62 338.068 237.354 337.167 237.172C336.271 236.995 335.365 236.907 334.453 236.901H278.708C277.797 236.907 276.891 236.995 275.995 237.172C275.094 237.354 274.224 237.62 273.38 237.969C272.536 238.318 271.734 238.75 270.974 239.256C270.214 239.766 269.51 240.344 268.859 240.99C268.214 241.636 267.635 242.339 267.13 243.099C266.62 243.86 266.193 244.662 265.839 245.511C265.49 246.354 265.224 247.224 265.047 248.12C264.865 249.021 264.776 249.922 264.776 250.839V292.646C264.776 293.558 264.865 294.464 265.047 295.365C265.224 296.261 265.49 297.131 265.839 297.974C266.193 298.818 266.62 299.625 267.13 300.386C267.635 301.146 268.214 301.849 268.859 302.495C269.51 303.141 270.214 303.719 270.974 304.224C271.734 304.735 272.536 305.167 273.38 305.516C274.224 305.865 275.094 306.131 275.995 306.308C276.891 306.49 277.797 306.578 278.708 306.578H290.203L323.13 332.927C323.698 333.381 324.323 333.74 325.005 334C325.687 334.261 326.391 334.407 327.12 334.443C327.849 334.485 328.562 334.407 329.266 334.224C329.974 334.037 330.63 333.745 331.245 333.349C331.859 332.959 332.396 332.479 332.859 331.917C333.323 331.354 333.687 330.735 333.958 330.058C334.229 329.381 334.385 328.677 334.432 327.948C334.484 327.219 334.417 326.506 334.24 325.797L329.443 306.578H334.453C335.365 306.578 336.271 306.49 337.167 306.308C338.068 306.131 338.937 305.865 339.781 305.516C340.625 305.167 341.427 304.735 342.187 304.224C342.948 303.719 343.651 303.141 344.302 302.495C344.948 301.849 345.526 301.146 346.031 300.386C346.542 299.625 346.969 298.818 347.323 297.974C347.672 297.131 347.937 296.261 348.115 295.365C348.297 294.464 348.385 293.558 348.385 292.646ZM320.516 292.646C319.984 292.646 319.464 292.703 318.948 292.823C318.432 292.943 317.937 293.12 317.464 293.349C316.984 293.584 316.542 293.865 316.13 294.198C315.719 294.532 315.354 294.907 315.026 295.323C314.703 295.74 314.427 296.193 314.203 296.672C313.979 297.151 313.812 297.646 313.703 298.167C313.594 298.683 313.542 299.209 313.552 299.735C313.562 300.266 313.63 300.787 313.76 301.302L315.719 309.146L297 294.172C295.724 293.151 294.276 292.646 292.646 292.646H278.708V250.839H334.453L334.464 292.646H320.516Z" fill="#00FFAB"/>
<path d="M184.365 333.349C184.979 333.745 185.641 334.032 186.344 334.219C187.047 334.407 187.766 334.479 188.495 334.443C189.219 334.407 189.927 334.256 190.609 334C191.286 333.74 191.917 333.381 192.484 332.927L225.411 306.578H236.901C237.818 306.578 238.724 306.49 239.62 306.308C240.516 306.131 241.391 305.865 242.234 305.516C243.078 305.167 243.88 304.735 244.641 304.224C245.401 303.719 246.104 303.141 246.75 302.495C247.401 301.849 247.974 301.146 248.484 300.386C248.995 299.625 249.422 298.818 249.771 297.974C250.125 297.131 250.391 296.261 250.568 295.365C250.745 294.464 250.838 293.558 250.838 292.646V250.839C250.838 249.922 250.745 249.021 250.568 248.12C250.391 247.224 250.125 246.354 249.771 245.511C249.422 244.662 248.995 243.86 248.484 243.099C247.974 242.339 247.401 241.636 246.75 240.99C246.104 240.344 245.401 239.766 244.641 239.256C243.88 238.75 243.078 238.318 242.234 237.969C241.391 237.62 240.516 237.354 239.62 237.172C238.724 236.995 237.818 236.907 236.901 236.901H181.161C180.245 236.907 179.338 236.995 178.443 237.172C177.547 237.354 176.677 237.62 175.833 237.969C174.984 238.318 174.182 238.75 173.422 239.256C172.661 239.766 171.958 240.344 171.312 240.99C170.667 241.636 170.088 242.339 169.578 243.099C169.073 243.86 168.641 244.662 168.292 245.511C167.943 246.354 167.677 247.224 167.495 248.12C167.318 249.016 167.229 249.922 167.224 250.839V292.646C167.229 293.558 167.318 294.464 167.495 295.365C167.677 296.261 167.943 297.131 168.292 297.974C168.641 298.818 169.073 299.625 169.578 300.386C170.088 301.146 170.667 301.849 171.312 302.495C171.958 303.141 172.661 303.719 173.422 304.229C174.182 304.735 174.984 305.167 175.833 305.516C176.677 305.865 177.547 306.131 178.443 306.308C179.338 306.49 180.245 306.578 181.161 306.578H186.172L181.37 325.797C181.193 326.506 181.13 327.219 181.177 327.948C181.224 328.677 181.385 329.381 181.651 330.058C181.922 330.735 182.286 331.354 182.75 331.917C183.213 332.479 183.755 332.959 184.365 333.349ZM181.161 292.646V250.839H236.901V292.646H222.969C221.338 292.646 219.885 293.151 218.615 294.172L199.896 309.146L201.854 301.302C201.984 300.787 202.052 300.266 202.062 299.735C202.068 299.209 202.021 298.683 201.911 298.167C201.802 297.646 201.635 297.151 201.411 296.672C201.187 296.188 200.911 295.74 200.588 295.323C200.26 294.907 199.891 294.532 199.479 294.198C199.068 293.865 198.625 293.584 198.151 293.349C197.677 293.12 197.182 292.943 196.667 292.823C196.151 292.703 195.625 292.646 195.099 292.646H181.161Z" fill="#00FFAB"/>
<path d="M286.505 82.1405C286.099 84.104 285.833 86.0884 285.714 88.0884C285.594 90.0884 285.62 92.0832 285.786 94.0832C285.958 96.078 286.271 98.052 286.729 100.005C287.182 101.953 287.776 103.864 288.51 105.729C289.245 107.594 290.104 109.396 291.099 111.135C292.094 112.875 293.208 114.536 294.443 116.114C295.677 117.693 297.021 119.172 298.469 120.557C299.922 121.937 301.464 123.213 303.099 124.37V139.354C303.099 140.729 303.234 142.083 303.5 143.432C303.771 144.776 304.167 146.083 304.693 147.349C305.219 148.62 305.865 149.823 306.625 150.963C307.391 152.104 308.255 153.156 309.224 154.13C310.198 155.099 311.25 155.963 312.391 156.729C313.531 157.489 314.734 158.135 316.005 158.661C317.271 159.187 318.578 159.583 319.922 159.854C321.271 160.12 322.63 160.255 324 160.26H330.969C332.339 160.255 333.698 160.12 335.042 159.854C336.391 159.583 337.698 159.187 338.964 158.661C340.229 158.135 341.432 157.489 342.578 156.729C343.719 155.963 344.771 155.099 345.74 154.13C346.714 153.156 347.578 152.104 348.339 150.963C349.104 149.823 349.75 148.62 350.276 147.349C350.797 146.083 351.198 144.776 351.464 143.432C351.734 142.083 351.87 140.729 351.87 139.354V124.359C352.557 123.864 353.224 123.349 353.88 122.812C354.531 122.276 355.172 121.724 355.792 121.146C356.411 120.573 357.01 119.979 357.599 119.37C358.182 118.76 358.745 118.13 359.292 117.484C359.839 116.838 360.365 116.177 360.87 115.5C361.375 114.823 361.859 114.135 362.323 113.427C362.786 112.719 363.229 112 363.651 111.265C364.073 110.531 364.469 109.786 364.844 109.031C365.219 108.271 365.568 107.505 365.901 106.724C366.229 105.948 366.531 105.161 366.813 104.359C367.094 103.562 367.349 102.76 367.578 101.948C367.813 101.135 368.016 100.312 368.198 99.4895C368.38 98.6613 368.536 97.8332 368.667 96.9999C368.802 96.1613 368.906 95.3228 368.984 94.4842C369.068 93.6405 369.12 92.7967 369.151 91.953C369.182 91.1092 369.182 90.2655 369.161 89.4217C369.141 88.5728 369.094 87.729 369.021 86.8905C368.948 86.0467 368.849 85.2082 368.724 84.3697C368.599 83.5363 368.448 82.703 368.276 81.8801C368.099 81.052 367.901 80.229 367.677 79.4165C367.453 78.5988 367.203 77.7915 366.927 76.9947C366.656 76.1926 366.359 75.4009 366.036 74.6197C365.714 73.8384 365.37 73.0676 365 72.3072C364.63 71.5467 364.24 70.7967 363.828 70.0624C363.411 69.3228 362.979 68.5988 362.521 67.8905C362.063 67.177 361.583 66.4842 361.083 65.802C360.583 65.1197 360.063 64.453 359.521 63.8072C358.984 63.1561 358.422 62.5207 357.844 61.9061C357.266 61.2915 356.667 60.6926 356.052 60.1145C355.438 59.5363 354.802 58.9738 354.156 58.4322C353.505 57.8905 352.839 57.3697 352.161 56.8697C351.479 56.3697 350.781 55.8905 350.073 55.4322C349.365 54.9738 348.641 54.5363 347.906 54.1197C347.167 53.7082 346.417 53.3124 345.656 52.9426C344.896 52.578 344.125 52.229 343.344 51.9061C342.563 51.5832 341.776 51.2863 340.974 51.0103C340.177 50.7395 339.37 50.4895 338.552 50.2603C337.74 50.0363 336.917 49.8384 336.094 49.6613C335.266 49.4842 334.432 49.3332 333.599 49.2082C332.76 49.0832 331.922 48.9842 331.083 48.9113C330.24 48.8384 329.396 48.7863 328.552 48.7655C327.703 48.7447 326.859 48.7447 326.016 48.7759C325.172 48.802 324.328 48.854 323.484 48.9374C322.646 49.0155 321.807 49.1197 320.974 49.2499C320.135 49.3801 319.307 49.5363 318.479 49.7186C317.656 49.9009 316.833 50.104 316.021 50.3332C315.208 50.5676 314.406 50.8228 313.604 51.0988C312.807 51.3801 312.021 51.6822 311.24 52.0103C310.464 52.3384 309.693 52.6874 308.938 53.0624C308.177 53.4374 307.432 53.8332 306.698 54.2551C305.964 54.6717 305.245 55.1145 304.536 55.578C303.828 56.0415 303.135 56.5259 302.458 57.0311C301.781 57.5363 301.12 58.0624 300.474 58.604C299.828 59.1509 299.198 59.7186 298.589 60.302C297.979 60.8853 297.385 61.4842 296.807 62.104C296.234 62.7238 295.677 63.3592 295.141 64.0155C294.604 64.6665 294.089 65.3384 293.594 66.0207C293.099 66.703 292.625 67.4061 292.172 68.1197C291.719 68.8332 291.286 69.5572 290.88 70.2967C290.469 71.0363 290.083 71.7863 289.719 72.552C289.354 73.3124 289.016 74.0884 288.698 74.8697C288.38 75.6561 288.089 76.4478 287.823 77.2499C287.552 78.052 287.307 78.8592 287.089 79.677C286.87 80.4947 286.677 81.3124 286.505 82.1405ZM330.969 146.323H324C323.542 146.323 323.089 146.276 322.641 146.187C322.193 146.099 321.755 145.963 321.333 145.792C320.911 145.614 320.51 145.401 320.13 145.146C319.75 144.89 319.396 144.604 319.073 144.281C318.75 143.958 318.464 143.604 318.208 143.224C317.953 142.844 317.74 142.443 317.563 142.021C317.391 141.599 317.255 141.161 317.167 140.713C317.078 140.265 317.031 139.812 317.031 139.354H337.938C337.938 139.812 337.891 140.265 337.802 140.713C337.714 141.161 337.578 141.599 337.406 142.021C337.229 142.443 337.016 142.844 336.76 143.224C336.505 143.604 336.219 143.958 335.896 144.281C335.568 144.604 335.219 144.89 334.839 145.146C334.458 145.401 334.057 145.614 333.635 145.792C333.208 145.969 332.776 146.099 332.328 146.187C331.88 146.276 331.427 146.323 330.969 146.323ZM300.177 84.8592C300.443 83.552 300.802 82.2707 301.255 81.0207C301.708 79.7655 302.245 78.552 302.875 77.3749C303.5 76.1978 304.208 75.0728 305 73.9999C305.786 72.927 306.651 71.9165 307.583 70.9634C308.521 70.0155 309.521 69.1405 310.583 68.3332C311.641 67.5259 312.755 66.802 313.922 66.1561C315.089 65.5155 316.297 64.953 317.542 64.4842C318.792 64.0155 320.063 63.6353 321.365 63.3488C323.401 62.9217 325.458 62.703 327.536 62.703C330.729 62.6926 333.823 63.2238 336.828 64.2915C339.833 65.3645 342.573 66.9061 345.036 68.927C345.911 69.6353 346.74 70.3905 347.526 71.1978C348.307 72.0051 349.036 72.854 349.719 73.7499C350.396 74.6457 351.021 75.578 351.583 76.5467C352.151 77.5155 352.656 78.5207 353.099 79.552C353.542 80.5832 353.922 81.6405 354.24 82.7186C354.552 83.7967 354.802 84.8905 354.984 85.9999C355.167 87.104 355.281 88.2238 355.328 89.3436C355.375 90.4686 355.354 91.5884 355.266 92.7082C355.177 93.828 355.021 94.9374 354.797 96.0415C354.573 97.1405 354.281 98.2238 353.927 99.2915C353.568 100.354 353.151 101.396 352.667 102.411C352.182 103.427 351.641 104.406 351.042 105.354C350.438 106.302 349.781 107.213 349.068 108.083C348.354 108.953 347.594 109.771 346.781 110.547C345.969 111.323 345.115 112.052 344.214 112.724C343.313 113.396 342.375 114.01 341.396 114.568C340.328 115.187 339.479 116.042 338.865 117.114C338.245 118.187 337.932 119.349 337.938 120.588V125.422H317.031V120.588C317.031 119.349 316.724 118.187 316.104 117.114C315.484 116.042 314.641 115.187 313.568 114.568C312.307 113.844 311.109 113.031 309.974 112.12C308.839 111.208 307.781 110.213 306.802 109.14C305.828 108.062 304.938 106.917 304.141 105.698C303.344 104.484 302.646 103.213 302.047 101.885C301.448 100.562 300.958 99.1978 300.578 97.7915C300.193 96.3905 299.922 94.9686 299.766 93.5207C299.604 92.0728 299.563 90.6249 299.63 89.1717C299.698 87.7186 299.88 86.2811 300.177 84.8592Z" fill="#00FFAB"/>
<path d="M320.516 27.8701H334.453V41.8076H320.516V27.8701Z" fill="#00FFAB"/>
<path d="M376.26 76.6455H390.193V90.5778H376.26V76.6455Z" fill="#00FFAB"/>
<path d="M264.776 76.6455H278.708V90.5778H264.776V76.6455Z" fill="#00FFAB"/>
<path d="M278.214 46.734L288.068 36.8799L297.922 46.734L288.068 56.5882L278.214 46.734Z" fill="#00FFAB"/>
<path d="M357.047 46.734L366.901 36.8799L376.755 46.734L366.901 56.5882L357.047 46.734Z" fill="#00FFAB"/>
<path d="M105.354 153.011H105.719C107.094 152.995 108.458 152.875 109.812 152.656C111.167 152.438 112.5 152.125 113.812 151.708C115.12 151.292 116.391 150.781 117.625 150.182C118.859 149.578 120.042 148.886 121.172 148.109C122.302 147.333 123.375 146.479 124.38 145.542C125.385 144.609 126.318 143.604 127.172 142.531C128.031 141.458 128.807 140.328 129.495 139.141C130.187 137.958 130.786 136.724 131.297 135.448C131.807 134.177 132.219 132.87 132.536 131.531C132.854 130.198 133.068 128.844 133.187 127.479C133.302 126.109 133.318 124.74 133.234 123.37C133.151 122 132.963 120.641 132.677 119.297C132.396 117.953 132.01 116.641 131.531 115.354C131.052 114.068 130.484 112.823 129.818 111.62C129.156 110.417 128.411 109.271 127.578 108.177C126.745 107.083 125.838 106.057 124.854 105.099C123.542 103.823 122.115 102.688 120.578 101.693C119.036 100.693 117.422 99.8543 115.719 99.1772C114.016 98.4949 112.266 97.9897 110.463 97.6511C108.661 97.3126 106.844 97.1563 105.01 97.172C104.104 97.1876 103.193 97.2397 102.292 97.3438C101.385 97.4428 100.484 97.5834 99.5937 97.7761C98.703 97.9636 97.8228 98.1928 96.953 98.4688C96.0885 98.7397 95.2343 99.0574 94.3958 99.4168C93.5572 99.7709 92.7395 100.172 91.9426 100.609C91.1458 101.047 90.3697 101.521 89.6145 102.037C88.8645 102.547 88.1405 103.099 87.4426 103.682C86.7395 104.266 86.0728 104.886 85.4374 105.531C84.7968 106.182 84.1926 106.865 83.6197 107.573C83.052 108.281 82.5155 109.016 82.0155 109.776C81.5155 110.542 81.0572 111.323 80.6301 112.13C80.2083 112.938 79.828 113.761 79.4843 114.604C79.1405 115.448 78.8437 116.307 78.5833 117.182C78.328 118.057 78.1093 118.938 77.9426 119.833C77.7708 120.729 77.6405 121.63 77.5572 122.537C77.4739 123.443 77.4374 124.349 77.4426 125.261C77.4478 126.172 77.4947 127.083 77.5937 127.984C77.6874 128.891 77.8228 129.792 78.0051 130.682C78.1874 131.578 78.4166 132.458 78.6822 133.328C78.953 134.198 79.2603 135.052 79.6145 135.891C79.9687 136.734 80.3593 137.552 80.7916 138.354C81.2239 139.156 81.6926 139.932 82.203 140.688C82.7135 141.443 83.2551 142.172 83.8385 142.875C84.4166 143.578 85.0312 144.25 85.677 144.891C86.3228 145.531 86.9947 146.141 87.703 146.719C88.4062 147.297 89.1405 147.833 89.8958 148.339C90.6562 148.844 91.4374 149.307 92.2395 149.74C93.0468 150.167 93.8697 150.552 94.7083 150.901C95.552 151.25 96.4114 151.552 97.2812 151.818C98.151 152.078 99.0364 152.302 99.927 152.479C100.823 152.656 101.719 152.787 102.625 152.875C103.536 152.969 104.443 153.011 105.354 153.011ZM95.3489 115.333C96.6405 114 98.1405 112.969 99.8437 112.234C101.552 111.505 103.333 111.13 105.187 111.109H105.38C106.292 111.109 107.198 111.203 108.094 111.38C108.99 111.557 109.865 111.823 110.708 112.172C111.552 112.521 112.354 112.948 113.115 113.458C113.875 113.964 114.578 114.537 115.229 115.182C115.875 115.828 116.453 116.531 116.963 117.287C117.474 118.047 117.906 118.849 118.26 119.688C118.615 120.531 118.88 121.401 119.062 122.297C119.245 123.193 119.338 124.099 119.344 125.011C119.349 125.927 119.266 126.833 119.094 127.729C118.922 128.625 118.667 129.5 118.323 130.344C117.979 131.193 117.557 132 117.057 132.766C116.552 133.526 115.984 134.234 115.344 134.891C114.703 135.542 114.005 136.125 113.25 136.641C112.495 137.156 111.698 137.594 110.859 137.953C110.016 138.313 109.151 138.583 108.255 138.776C107.359 138.964 106.458 139.063 105.542 139.078C103.698 139.052 101.922 138.698 100.208 138.011C98.4947 137.328 96.9635 136.359 95.6093 135.109C94.953 134.469 94.3645 133.771 93.8437 133.016C93.3228 132.255 92.8801 131.458 92.5155 130.615C92.1562 129.771 91.8801 128.896 91.6874 128C91.4947 127.104 91.3958 126.193 91.3853 125.276C91.3697 124.359 91.4478 123.448 91.6145 122.547C91.7864 121.641 92.0364 120.766 92.3801 119.912C92.7187 119.057 93.1405 118.245 93.6405 117.479C94.1405 116.708 94.7083 115.995 95.3489 115.333Z" fill="#00FFAB"/>
<path d="M43.0468 139.416C42.8072 140.307 42.7447 141.213 42.8645 142.13C42.9843 143.047 43.276 143.901 43.7395 144.703L57.6718 168.843C58.1354 169.646 58.7343 170.328 59.4687 170.89C60.2031 171.453 61.0156 171.854 61.9062 172.088C62.802 172.323 63.7031 172.38 64.6197 172.26C65.5312 172.14 66.3906 171.849 67.1927 171.396L77.1197 165.396C79.3333 166.948 81.6666 168.291 84.1145 169.432V181.161C84.1145 181.619 84.1614 182.073 84.2499 182.521C84.3385 182.968 84.4687 183.406 84.6458 183.828C84.8229 184.25 85.0364 184.651 85.2916 185.031C85.5416 185.411 85.8333 185.765 86.1562 186.088C86.4791 186.411 86.8333 186.703 87.2135 186.958C87.5937 187.208 87.9947 187.427 88.4166 187.599C88.8385 187.776 89.276 187.906 89.7239 187.994C90.1718 188.083 90.6249 188.13 91.0833 188.13H118.953C119.411 188.13 119.865 188.083 120.312 187.994C120.766 187.906 121.198 187.776 121.62 187.599C122.047 187.427 122.448 187.208 122.828 186.958C123.208 186.703 123.557 186.411 123.885 186.088C124.208 185.765 124.495 185.411 124.75 185.031C125.005 184.651 125.219 184.25 125.396 183.828C125.568 183.406 125.703 182.968 125.792 182.521C125.88 182.073 125.922 181.619 125.922 181.161L125.651 169.573C128.115 168.432 130.458 167.088 132.687 165.531L142.838 171.396C143.641 171.854 144.5 172.14 145.417 172.26C146.328 172.38 147.234 172.323 148.125 172.088C149.016 171.854 149.833 171.453 150.562 170.89C151.297 170.328 151.896 169.646 152.359 168.843L166.292 144.703C166.521 144.307 166.708 143.89 166.854 143.458C167.005 143.026 167.104 142.583 167.167 142.13C167.224 141.677 167.24 141.218 167.208 140.765C167.182 140.307 167.104 139.859 166.99 139.416C166.87 138.974 166.708 138.547 166.505 138.135C166.302 137.729 166.062 137.338 165.786 136.979C165.505 136.614 165.198 136.281 164.854 135.979C164.51 135.677 164.135 135.411 163.74 135.182L153.625 129.343C153.74 128.026 153.797 126.718 153.792 125.422C153.792 124.119 153.74 122.812 153.625 121.494L163.74 115.656C164.135 115.427 164.51 115.161 164.854 114.859C165.198 114.557 165.505 114.224 165.786 113.859C166.062 113.5 166.302 113.109 166.505 112.703C166.708 112.291 166.87 111.864 166.99 111.422C167.104 110.979 167.182 110.531 167.208 110.078C167.24 109.619 167.224 109.166 167.167 108.708C167.104 108.255 167.005 107.812 166.854 107.38C166.708 106.948 166.521 106.531 166.292 106.135L152.359 81.9945C152.13 81.5986 151.865 81.2288 151.562 80.8851C151.26 80.5413 150.927 80.2288 150.562 79.9476C150.203 79.6715 149.812 79.432 149.406 79.2288C148.995 79.0257 148.568 78.8643 148.125 78.7497C147.682 78.6299 147.234 78.557 146.781 78.5257C146.323 78.4945 145.87 78.5101 145.411 78.5674C144.958 78.6299 144.516 78.734 144.083 78.8799C143.651 79.0257 143.234 79.2132 142.838 79.4424L132.911 85.4424C130.698 83.8955 128.37 82.5465 125.922 81.4059V69.6768C125.922 69.2184 125.88 68.7653 125.792 68.3174C125.703 67.8695 125.568 67.432 125.396 67.0101C125.219 66.5882 125.005 66.1872 124.75 65.807C124.495 65.4268 124.208 65.0726 123.885 64.7497C123.557 64.4268 123.208 64.1351 122.828 63.8799C122.448 63.6299 122.047 63.4111 121.62 63.2393C121.198 63.0622 120.766 62.932 120.312 62.8434C119.865 62.7549 119.411 62.708 118.953 62.708H91.0833C90.6249 62.708 90.1718 62.7549 89.7239 62.8434C89.276 62.932 88.8385 63.0622 88.4166 63.2393C87.9947 63.4111 87.5937 63.6299 87.2135 63.8799C86.8333 64.1351 86.4791 64.4268 86.1562 64.7497C85.8333 65.0726 85.5416 65.4268 85.2916 65.807C85.0364 66.1872 84.8229 66.5882 84.6458 67.0101C84.4687 67.432 84.3385 67.8695 84.2499 68.3174C84.1614 68.7653 84.1145 69.2184 84.1145 69.6768L84.3802 81.2653C81.9166 82.4059 79.5729 83.7497 77.3437 85.307L67.1927 79.4424C66.7968 79.2132 66.3854 79.0257 65.9479 78.8799C65.5156 78.734 65.0729 78.6299 64.6197 78.5674C64.1666 78.5101 63.7083 78.4945 63.2551 78.5257C62.7968 78.557 62.3489 78.6299 61.9062 78.7497C61.4635 78.8643 61.0364 79.0257 60.6301 79.2288C60.2187 79.432 59.8333 79.6715 59.4687 79.9476C59.1041 80.2288 58.7708 80.5413 58.4687 80.8851C58.1666 81.2288 57.901 81.5986 57.677 81.9945L43.7395 106.135C43.5104 106.531 43.3229 106.948 43.177 107.38C43.0312 107.812 42.927 108.255 42.8645 108.708C42.8072 109.166 42.7916 109.619 42.8229 110.078C42.8541 110.531 42.927 110.979 43.0468 111.422C43.1614 111.864 43.3229 112.291 43.526 112.703C43.7291 113.109 43.9687 113.5 44.2499 113.859C44.526 114.224 44.8385 114.557 45.1822 114.859C45.526 115.161 45.8958 115.427 46.2916 115.656L56.4166 121.494C56.302 122.817 56.2447 124.135 56.2447 125.422C56.2447 126.703 56.302 128.021 56.4166 129.343L46.2916 135.182C45.4895 135.646 44.8072 136.244 44.2499 136.979C43.6874 137.708 43.2864 138.526 43.0468 139.416ZM70.7864 131.786C69.9739 127.541 69.9739 123.297 70.7864 119.052C70.9166 118.343 70.9374 117.63 70.8489 116.916C70.7552 116.203 70.5624 115.521 70.2604 114.869C69.9583 114.213 69.5676 113.625 69.0781 113.093C68.5937 112.562 68.0416 112.114 67.4166 111.755L59.2916 107.067L66.2604 94.9945L70.3854 97.3851C71.5052 98.0413 72.6979 98.5257 73.9583 98.8434C75.2187 99.1611 76.4999 99.3018 77.7968 99.2549C79.0989 99.2132 80.3645 98.9893 81.6041 98.5882C82.8385 98.182 83.9947 97.6195 85.0677 96.8903C86.7187 95.7445 88.4479 94.7445 90.2656 93.8955C91.4426 93.3278 92.5104 92.609 93.4843 91.7393C94.4531 90.8695 95.2812 89.8851 95.9687 88.7809C96.6562 87.6715 97.1822 86.4945 97.5364 85.2393C97.8906 83.9893 98.0624 82.708 98.052 81.4059V76.6455H111.99V81.4059C111.979 82.7132 112.151 83.9893 112.505 85.2445C112.865 86.4997 113.385 87.682 114.078 88.7861C114.766 89.8955 115.594 90.8799 116.568 91.7549C117.536 92.6247 118.609 93.3434 119.786 93.9059C121.594 94.7497 123.312 95.7445 124.948 96.8799C126.026 97.6143 127.182 98.182 128.422 98.5882C129.661 98.9893 130.927 99.2132 132.229 99.2601C133.531 99.3018 134.812 99.1663 136.078 98.8434C137.338 98.5257 138.531 98.0361 139.656 97.3799L143.771 94.9945L150.74 107.067L142.615 111.755C141.99 112.114 141.437 112.562 140.953 113.093C140.469 113.625 140.073 114.213 139.771 114.869C139.469 115.521 139.276 116.203 139.187 116.916C139.094 117.63 139.115 118.343 139.245 119.052C140.073 123.297 140.073 127.541 139.245 131.786C139.115 132.494 139.094 133.208 139.187 133.922C139.276 134.635 139.469 135.317 139.771 135.968C140.073 136.625 140.469 137.213 140.953 137.744C141.437 138.276 141.99 138.724 142.615 139.083L150.74 143.771L143.771 155.843L139.656 153.458C138.531 152.802 137.338 152.312 136.078 151.994C134.818 151.677 133.536 151.536 132.24 151.578C130.937 151.625 129.672 151.849 128.432 152.25C127.198 152.651 126.042 153.218 124.963 153.948C123.318 155.093 121.583 156.093 119.766 156.942C118.594 157.51 117.521 158.229 116.552 159.099C115.583 159.968 114.755 160.958 114.068 162.062C113.38 163.166 112.859 164.343 112.505 165.599C112.151 166.849 111.979 168.13 111.99 169.432V174.192H98.052V169.432C98.0624 168.125 97.8854 166.843 97.5312 165.593C97.177 164.338 96.651 163.156 95.9635 162.047C95.2708 160.942 94.4374 159.953 93.4687 159.083C92.4947 158.213 91.4218 157.494 90.2447 156.932C88.4426 156.088 86.7187 155.093 85.0833 153.958C84.0052 153.224 82.8489 152.661 81.6093 152.255C80.3749 151.854 79.1041 151.63 77.802 151.583C76.4999 151.541 75.2187 151.677 73.9583 152C72.6979 152.317 71.4999 152.802 70.3802 153.458L66.2604 155.843L59.2916 143.771L67.4166 139.083C68.0416 138.724 68.5937 138.276 69.0781 137.744C69.5676 137.213 69.9583 136.625 70.2604 135.968C70.5624 135.317 70.7552 134.635 70.8489 133.922C70.9374 133.208 70.9166 132.494 70.7864 131.786Z" fill="#00FFAB"/>
<path d="M320.516 174.192H334.453V188.13H320.516V174.192Z" fill="#00FFAB"/>
<path d="M292.646 174.192H306.578V188.13H292.646V174.192Z" fill="#00FFAB"/>
<path d="M264.776 174.192H278.708V188.13H264.776V174.192Z" fill="#00FFAB"/>
<path d="M236.901 174.192H250.839V188.13H236.901V174.192Z" fill="#00FFAB"/>
<path d="M236.901 146.323H250.839V160.261H236.901V146.323Z" fill="#00FFAB"/>
<path d="M236.901 118.453H250.839V132.385H236.901V118.453Z" fill="#00FFAB"/>
<path d="M209.031 118.453H222.969V132.385H209.031V118.453Z" fill="#00FFAB"/>
<path d="M181.161 118.453H195.099V132.385H181.161V118.453Z" fill="#00FFAB"/>
</svg>
