<svg width="74" height="74" viewBox="0 0 74 74" fill="none" xmlns="http://www.w3.org/2000/svg">
<mask id="mask0_22_529" style="mask-type:luminance" maskUnits="userSpaceOnUse" x="0" y="0" width="74" height="74">
<path d="M0.129761 0.240967H73.3908V73.6311H0.129761V0.240967Z" fill="white"/>
</mask>
<g mask="url(#mask0_22_529)">
<path d="M37.6964 19.9954C37.7514 20.5061 37.8293 21.013 37.928 21.518C38.0267 22.0211 38.1463 22.5204 38.2868 23.014C38.4292 23.5077 38.5906 23.9956 38.7728 24.4759C38.9551 24.9544 39.1563 25.4271 39.3785 25.8903C39.6025 26.3536 39.8436 26.8054 40.1037 27.2478C40.3638 27.6921 40.6429 28.1211 40.9391 28.5407C41.2371 28.9603 41.5504 29.3666 41.8826 29.7577C42.2149 30.1507 42.5623 30.5285 42.9249 30.8911C43.2876 31.2556 43.6673 31.6031 44.0603 31.9334C44.4514 32.2638 44.8577 32.5789 45.2772 32.8751C45.6968 33.1713 46.1278 33.4503 46.5721 33.7104C47.0144 33.9705 47.4682 34.2136 47.9314 34.4338C48.3947 34.6559 48.8674 34.8591 49.3477 35.0413C49.8281 35.2236 50.316 35.385 50.8096 35.5255C51.3032 35.6659 51.8025 35.7856 52.3076 35.8843C52.8126 35.983 53.3195 36.0608 53.8302 36.1159C60.3479 36.7652 66.8808 37.0614 73.4289 37.0082C66.8808 36.9551 60.3479 37.2531 53.8302 37.9005C53.3195 37.9575 52.8126 38.0334 52.3076 38.1322C51.8025 38.2309 51.3032 38.3505 50.8096 38.4929C50.316 38.6334 49.8281 38.7948 49.3477 38.977C48.8674 39.1593 48.3947 39.3605 47.9314 39.5826C47.4682 39.8048 47.0144 40.0459 46.5721 40.306C46.1278 40.5661 45.6968 40.8452 45.2772 41.1432C44.8577 41.4394 44.4514 41.7527 44.0603 42.0849C43.6673 42.4153 43.2876 42.7627 42.9249 43.1253C42.5623 43.488 42.2149 43.8658 41.8826 44.2588C41.5504 44.6518 41.2371 45.058 40.9391 45.4757C40.6429 45.8953 40.3638 46.3263 40.1037 46.7686C39.8436 47.211 39.6025 47.6647 39.3785 48.128C39.1563 48.5912 38.9551 49.0621 38.7728 49.5424C38.5906 50.0227 38.4292 50.5107 38.2868 51.0043C38.1463 51.4979 38.0267 51.9972 37.928 52.5003C37.8293 53.0035 37.7514 53.5123 37.6964 54.023C37.0471 60.5331 36.749 67.0622 36.8021 73.6046C36.8572 67.0622 36.5591 60.5331 35.9098 54.023C35.8529 53.5123 35.7769 53.0035 35.6782 52.5003C35.5776 51.9972 35.458 51.4979 35.3175 51.0043C35.177 50.5107 35.0156 50.0227 34.8334 49.5424C34.6511 49.0621 34.4479 48.5912 34.2258 48.128C34.0037 47.6647 33.7626 47.211 33.5025 46.7686C33.2405 46.3263 32.9633 45.8953 32.6652 45.4757C32.369 45.058 32.0539 44.6518 31.7235 44.2588C31.3913 43.8658 31.0439 43.488 30.6812 43.1253C30.3167 42.7627 29.9389 42.4153 29.5459 42.0849C29.1529 41.7527 28.7466 41.4394 28.327 41.1413C27.9075 40.8452 27.4765 40.5661 27.0341 40.306C26.5899 40.0459 26.138 39.8048 25.6748 39.5826C25.2115 39.3605 24.7388 39.1593 24.2585 38.977C23.7781 38.7948 23.2902 38.6334 22.7966 38.4929C22.3011 38.3505 21.8017 38.2309 21.2986 38.1322C20.7936 38.0334 20.2848 37.9575 19.7741 37.9005C13.2583 37.2531 6.72539 36.9551 0.175415 37.0082C6.72539 37.0614 13.2583 36.7652 19.7741 36.1159C20.2848 36.0608 20.7936 35.983 21.2986 35.8843C21.8017 35.7856 22.3011 35.6659 22.7966 35.5255C23.2902 35.385 23.7781 35.2236 24.2585 35.0413C24.7388 34.8591 25.2115 34.6559 25.6748 34.4357C26.138 34.2136 26.5899 33.9724 27.0341 33.7104C27.4765 33.4503 27.9075 33.1732 28.327 32.8751C28.7466 32.5789 29.1529 32.2657 29.5459 31.9334C29.9389 31.6031 30.3167 31.2556 30.6812 30.893C31.0439 30.5285 31.3913 30.1507 31.7235 29.7596C32.0539 29.3666 32.369 28.9603 32.6652 28.5407C32.9633 28.123 33.2405 27.6921 33.5025 27.2478C33.7626 26.8054 34.0037 26.3536 34.2258 25.8903C34.4479 25.4271 34.6511 24.9563 34.8334 24.4759C35.0156 23.9956 35.177 23.5077 35.3175 23.014C35.458 22.5204 35.5776 22.0211 35.6782 21.518C35.7769 21.013 35.8529 20.5061 35.9098 19.9954C36.561 13.4833 36.8591 6.95615 36.8078 0.411865C36.7528 6.95615 37.049 13.4833 37.6964 19.9954Z" fill="#3C6CA8"/>
</g>
</svg>
